<?xml version="1.0" encoding="utf-8"?>
<!-- Uploaded to: SVG Repo, www.svgrepo.com, Generator: SVG Repo Mixer Tools -->
<svg width="800px" height="800px" viewBox="0 0 1024 1024" class="icon"  version="1.1" xmlns="http://www.w3.org/2000/svg"><path d="M128.021333 512c0 185.536 132.309333 340.757333 307.52 376.32l-43.349333-102.933333c-105.152-46.272-178.837333-151.317333-178.837333-273.365334 0-164.693333 133.973333-298.666667 298.666666-298.666666s298.666667 133.973333 298.666667 298.666666c0 122.090667-73.685333 227.114667-178.858667 273.386667l-43.328 102.912c175.210667-35.562667 307.52-190.741333 307.52-376.32 0-211.754667-172.266667-384-384-384s-384 172.245333-384 384z" fill="#64B5F6" /><path d="M106.666667 512h128M789.333333 512h128M512 234.666667V106.666667" fill="none" /><path d="M512.021333 960L341.333333 554.666667l170.666667 106.666666 170.666667-106.666666z" fill="#FF3D00" /></svg>